<svg id="visual" viewBox="0 0 960 540" width="960" height="540" xmlns="http://www.w3.org/2000/svg" xmlns:xlink="http://www.w3.org/1999/xlink" version="1.1"><rect x="0" y="0" width="960" height="540" fill="#001220"></rect><path d="M0 380L22.8 369.7C45.7 359.3 91.3 338.7 137 332.7C182.7 326.7 228.3 335.3 274 346C319.7 356.7 365.3 369.3 411.2 368.2C457 367 503 352 548.8 349.5C594.7 347 640.3 357 686 363.7C731.7 370.3 777.3 373.7 823 372.8C868.7 372 914.3 367 937.2 364.5L960 362L960 541L937.2 541C914.3 541 868.7 541 823 541C777.3 541 731.7 541 686 541C640.3 541 594.7 541 548.8 541C503 541 457 541 411.2 541C365.3 541 319.7 541 274 541C228.3 541 182.7 541 137 541C91.3 541 45.7 541 22.8 541L0 541Z" fill="#fa7268"></path><path d="M0 397L22.8 401.3C45.7 405.7 91.3 414.3 137 409.3C182.7 404.3 228.3 385.7 274 379C319.7 372.3 365.3 377.7 411.2 388C457 398.3 503 413.7 548.8 415.2C594.7 416.7 640.3 404.3 686 400.5C731.7 396.7 777.3 401.3 823 398.7C868.7 396 914.3 386 937.2 381L960 376L960 541L937.2 541C914.3 541 868.7 541 823 541C777.3 541 731.7 541 686 541C640.3 541 594.7 541 548.8 541C503 541 457 541 411.2 541C365.3 541 319.7 541 274 541C228.3 541 182.7 541 137 541C91.3 541 45.7 541 22.8 541L0 541Z" fill="#ef5f67"></path><path d="M0 405L22.8 404.2C45.7 403.3 91.3 401.7 137 399.7C182.7 397.7 228.3 395.3 274 400C319.7 404.7 365.3 416.3 411.2 427.3C457 438.3 503 448.7 548.8 452.2C594.7 455.7 640.3 452.3 686 441.3C731.7 430.3 777.3 411.7 823 405.2C868.7 398.7 914.3 404.3 937.2 407.2L960 410L960 541L937.2 541C914.3 541 868.7 541 823 541C777.3 541 731.7 541 686 541C640.3 541 594.7 541 548.8 541C503 541 457 541 411.2 541C365.3 541 319.7 541 274 541C228.3 541 182.7 541 137 541C91.3 541 45.7 541 22.8 541L0 541Z" fill="#e34c67"></path><path d="M0 437L22.8 442.3C45.7 447.7 91.3 458.3 137 460C182.7 461.7 228.3 454.3 274 452.7C319.7 451 365.3 455 411.2 461.3C457 467.7 503 476.3 548.8 480.3C594.7 484.3 640.3 483.7 686 481.7C731.7 479.7 777.3 476.3 823 473C868.7 469.7 914.3 466.3 937.2 464.7L960 463L960 541L937.2 541C914.3 541 868.7 541 823 541C777.3 541 731.7 541 686 541C640.3 541 594.7 541 548.8 541C503 541 457 541 411.2 541C365.3 541 319.7 541 274 541C228.3 541 182.7 541 137 541C91.3 541 45.7 541 22.8 541L0 541Z" fill="#d53867"></path><path d="M0 508L22.8 509.2C45.7 510.3 91.3 512.7 137 513.3C182.7 514 228.3 513 274 512.5C319.7 512 365.3 512 411.2 509.5C457 507 503 502 548.8 495.7C594.7 489.3 640.3 481.7 686 480.5C731.7 479.3 777.3 484.7 823 487.8C868.7 491 914.3 492 937.2 492.5L960 493L960 541L937.2 541C914.3 541 868.7 541 823 541C777.3 541 731.7 541 686 541C640.3 541 594.7 541 548.8 541C503 541 457 541 411.2 541C365.3 541 319.7 541 274 541C228.3 541 182.7 541 137 541C91.3 541 45.7 541 22.8 541L0 541Z" fill="#c62368"></path></svg>